<svg xmlns="http://www.w3.org/2000/svg" viewBox="0 0 143.98 55.58"><defs><style>.cls-1{fill:#634e42;}.cls-2{fill:#be1622;stroke:#be1622;stroke-miterlimit:10;}</style></defs><title>Asset 2</title><g id="Layer_2" data-name="Layer 2"><g id="Layer_1-2" data-name="Layer 1"><path class="cls-1" d="M37.27,24.12A5.44,5.44,0,1,0,30.22,16a18.2,18.2,0,0,0-2.75-1.4,19.48,19.48,0,0,0-7.42-1.41,18.39,18.39,0,0,0-7.39,1.5,18.85,18.85,0,0,0-3.22,1.76,5.45,5.45,0,1,0-6.82,8.36l-.1.24A20.31,20.31,0,0,0,1,32.91a20,20,0,0,0,1.5,7.77A19.11,19.11,0,0,0,12.66,51a18.24,18.24,0,0,0,7.39,1.52A18.31,18.31,0,0,0,27.47,51a19,19,0,0,0,6-4.14,19.28,19.28,0,0,0,4.07-6.22,20,20,0,0,0,1.5-7.77,21,21,0,0,0-1.5-8.09ZM28.76,37.05a9.64,9.64,0,0,1-2,3.2A9.26,9.26,0,0,1,20.05,43a8.62,8.62,0,0,1-3.67-.79,9.27,9.27,0,0,1-3-2.13,10.08,10.08,0,0,1-2-3.2,10.73,10.73,0,0,1-.73-4,12.28,12.28,0,0,1,.25-2.56,9.8,9.8,0,0,1,.48-1.59,9.56,9.56,0,0,1,2-3.2,8.11,8.11,0,0,1,2-1.6,7.44,7.44,0,0,1,.94-.46,9.81,9.81,0,0,1,7.33,0,9.26,9.26,0,0,1,1.05.51,8.86,8.86,0,0,1,1.6,1.19l.36.36a9.4,9.4,0,0,1,1.85,2.77c.07.14.13.28.19.43a9.59,9.59,0,0,1,.53,1.82,12.39,12.39,0,0,1,.21,2.33A11.33,11.33,0,0,1,28.76,37.05Z"/><path class="cls-1" d="M64.28,52.05a16.11,16.11,0,0,1-6.46-1.3,16.79,16.79,0,0,1-8.89-8.88,16.19,16.19,0,0,1-1.3-6.47V24.34H43V14.88h4.63V0h9.46V14.88H71.48v9.46H57.09V35.4a7.06,7.06,0,0,0,.55,2.8,7.14,7.14,0,0,0,1.53,2.28A7.49,7.49,0,0,0,61.47,42a7,7,0,0,0,2.81.58h7.2v9.45Z"/><path class="cls-1" d="M95.47,52.05A16.11,16.11,0,0,1,89,50.75a16.79,16.79,0,0,1-8.89-8.88,16.19,16.19,0,0,1-1.3-6.47V24.34H74.19V14.88h4.63V0h9.46V14.88h14.39v9.46H88.28V35.4a7.06,7.06,0,0,0,.55,2.8,7.14,7.14,0,0,0,1.53,2.28A7.49,7.49,0,0,0,92.66,42a7,7,0,0,0,2.81.58h7.2v9.45Z"/><path class="cls-1" d="M144,33.1a20.1,20.1,0,0,1-1.49,7.77,19.61,19.61,0,0,1-4.07,6.23,19.11,19.11,0,0,1-6,4.14,18.91,18.91,0,0,1-14.81,0,19.09,19.09,0,0,1-10.14-10.37,20.1,20.1,0,0,1-1.49-7.77,20.52,20.52,0,0,1,1.49-7.86A19.26,19.26,0,0,1,111.52,19a19,19,0,0,1,6-4.12A18.38,18.38,0,0,1,125,13.39a19.63,19.63,0,0,1,7.42,1.4,18.1,18.1,0,0,1,6,4A19.17,19.17,0,0,1,142.49,25,21.18,21.18,0,0,1,144,33.1Zm-9.56,0a11,11,0,0,0-.75-4.15,10,10,0,0,0-2-3.2,8.76,8.76,0,0,0-3-2.05,9.71,9.71,0,0,0-7.34,0,8.59,8.59,0,0,0-3,2.05,9.93,9.93,0,0,0-2,3.2,11.19,11.19,0,0,0-.73,4.15,10.7,10.7,0,0,0,.73,4,10.15,10.15,0,0,0,2,3.2,9.41,9.41,0,0,0,3,2.14,8.79,8.79,0,0,0,3.67.78,9.25,9.25,0,0,0,3.67-.73,9,9,0,0,0,3-2.05,9.78,9.78,0,0,0,2-3.2A11.05,11.05,0,0,0,134.42,33.1Z"/><path class="cls-2" d="M11.64,49.2c-1.18.7-1.21,4.79,0,5.45,1.48.81,6.26-.4,6.43-2.06S13.21,48.28,11.64,49.2Z"/><ellipse class="cls-2" cx="19.69" cy="52.61" rx="1.94" ry="1.91"/><path class="cls-2" d="M28,49.37c1.18.7,1.21,4.79,0,5.45-1.48.81-6.26-.4-6.43-2.06S26.4,48.45,28,49.37Z"/></g></g></svg>