<svg xmlns="http://www.w3.org/2000/svg" viewBox="0 0 223.59 36.78"><defs><style>.cls-1,.cls-2{fill:#5dc2d5;}.cls-2{font-size:11.19px;font-family:Montserrat-SemiBold, Montserrat;font-weight:600;}.cls-3{letter-spacing:-0.01em;}.cls-4{letter-spacing:0em;}</style></defs><title>Asset 1</title><g id="Layer_2" data-name="Layer 2"><g id="Layer_1-2" data-name="Layer 1"><path class="cls-1" d="M2.54,18.24a8.32,8.32,0,0,1-2.54-1l1.29-2.78a8.2,8.2,0,0,0,2.17.93,9,9,0,0,0,2.48.36c1.65,0,2.47-.41,2.47-1.22a.87.87,0,0,0-.67-.82,10,10,0,0,0-2.07-.42A21.59,21.59,0,0,1,3,12.69a4.23,4.23,0,0,1-1.85-1.15A3.23,3.23,0,0,1,.32,9.2,3.68,3.68,0,0,1,1.06,7,4.79,4.79,0,0,1,3.2,5.42a9.2,9.2,0,0,1,3.32-.54,12.89,12.89,0,0,1,2.82.31A7.89,7.89,0,0,1,11.67,6l-1.3,2.77a7.65,7.65,0,0,0-3.85-1,4,4,0,0,0-1.87.35A1,1,0,0,0,4,9.05a.88.88,0,0,0,.67.87,11.49,11.49,0,0,0,2.14.48A22.42,22.42,0,0,1,9.53,11a4.11,4.11,0,0,1,1.81,1.13,3.19,3.19,0,0,1,.77,2.29,3.55,3.55,0,0,1-.74,2.21,4.82,4.82,0,0,1-2.18,1.51,9.63,9.63,0,0,1-3.4.54A12.65,12.65,0,0,1,2.54,18.24Z"/><path class="cls-1" d="M14.5,0h3.88V18.46H14.5Z"/><path class="cls-1" d="M35,12.86H24.9a3.12,3.12,0,0,0,1.29,2,4.24,4.24,0,0,0,2.54.73,5.31,5.31,0,0,0,1.85-.31,4.59,4.59,0,0,0,1.51-1l2.06,2.24a7,7,0,0,1-5.52,2.17,8.74,8.74,0,0,1-4-.89,6.43,6.43,0,0,1-2.68-2.45,6.74,6.74,0,0,1-1-3.55,6.84,6.84,0,0,1,.93-3.55,6.61,6.61,0,0,1,2.57-2.46,8,8,0,0,1,7.2,0,6.22,6.22,0,0,1,2.5,2.43,7.25,7.25,0,0,1,.91,3.66S35.07,12.21,35,12.86Zm-9.08-4.3a3.11,3.11,0,0,0-1.09,2h6.59a3.17,3.17,0,0,0-1.1-2,3.22,3.22,0,0,0-2.18-.76A3.35,3.35,0,0,0,25.94,8.56Z"/><path class="cls-1" d="M50.72,12.86H40.59a3.18,3.18,0,0,0,1.3,2,4.21,4.21,0,0,0,2.53.73,5.33,5.33,0,0,0,1.86-.31,4.45,4.45,0,0,0,1.5-1l2.07,2.24a7,7,0,0,1-5.53,2.17,8.7,8.7,0,0,1-4-.89,6.46,6.46,0,0,1-2.69-2.45,6.73,6.73,0,0,1-.94-3.55,6.84,6.84,0,0,1,.93-3.55,6.58,6.58,0,0,1,2.56-2.46,8,8,0,0,1,7.2,0,6.16,6.16,0,0,1,2.5,2.43,7.15,7.15,0,0,1,.91,3.66S50.77,12.21,50.72,12.86Zm-9.08-4.3a3.17,3.17,0,0,0-1.1,2h6.59a3.16,3.16,0,0,0-1.09-2,3.26,3.26,0,0,0-2.19-.76A3.31,3.31,0,0,0,41.64,8.56Z"/><path class="cls-1" d="M64.68,5.73a6.2,6.2,0,0,1,2.4,2.42A7.26,7.26,0,0,1,68,11.77a7.25,7.25,0,0,1-.87,3.61,6.2,6.2,0,0,1-2.4,2.42,6.83,6.83,0,0,1-3.39.86,5.16,5.16,0,0,1-4-1.62v6.24H53.38V5.07h3.7V6.62a5.17,5.17,0,0,1,4.21-1.74A6.83,6.83,0,0,1,64.68,5.73Zm-1.61,8.73A3.78,3.78,0,0,0,64,11.77a3.78,3.78,0,0,0-.95-2.7,3.48,3.48,0,0,0-4.9,0,3.75,3.75,0,0,0-1,2.7,3.74,3.74,0,0,0,1,2.69,3.48,3.48,0,0,0,4.9,0Z"/><path class="cls-1" d="M79.72,6.55a5,5,0,0,1,1.37,3.8v8.11h-1.7v-2A4,4,0,0,1,77.64,18a6.16,6.16,0,0,1-2.75.57,5.41,5.41,0,0,1-3.48-1,3.39,3.39,0,0,1-1.29-2.77,3.34,3.34,0,0,1,1.2-2.68,5.93,5.93,0,0,1,3.85-1h4.15v-.8a3.35,3.35,0,0,0-.94-2.57,3.92,3.92,0,0,0-2.77-.89,6.86,6.86,0,0,0-2.38.42,6,6,0,0,0-2,1.13L70.47,7a7.1,7.1,0,0,1,2.38-1.31,9.52,9.52,0,0,1,2.94-.46A5.55,5.55,0,0,1,79.72,6.55Zm-2,10a4.07,4.07,0,0,0,1.59-2V12.39h-4.1c-2.24,0-3.36.78-3.36,2.33a2.14,2.14,0,0,0,.87,1.81,4,4,0,0,0,2.44.66A4.62,4.62,0,0,0,77.73,16.5Z"/><path class="cls-1" d="M85.89,0h1.76V18.46H85.89Z"/><path class="cls-1" d="M94.52,17.72a6.25,6.25,0,0,1-2.39-2.37,6.79,6.79,0,0,1-.87-3.44,6.78,6.78,0,0,1,.87-3.43,6.16,6.16,0,0,1,2.39-2.36,7.25,7.25,0,0,1,6.81,0,6.07,6.07,0,0,1,2.38,2.36,6.88,6.88,0,0,1,.86,3.43,6.89,6.89,0,0,1-.86,3.44,6.16,6.16,0,0,1-2.38,2.37,7.17,7.17,0,0,1-6.81,0Zm5.91-1.34a4.39,4.39,0,0,0,1.72-1.8,5.54,5.54,0,0,0,.63-2.67,5.53,5.53,0,0,0-.63-2.66,4.39,4.39,0,0,0-1.72-1.8,5,5,0,0,0-2.5-.64,5,5,0,0,0-2.5.64,4.44,4.44,0,0,0-1.74,1.8,5.42,5.42,0,0,0-.64,2.66,5.44,5.44,0,0,0,.64,2.67,4.44,4.44,0,0,0,1.74,1.8,4.94,4.94,0,0,0,2.5.63A5,5,0,0,0,100.43,16.38Z"/><path class="cls-1" d="M118.76,6.7a5.61,5.61,0,0,1,1.45,4.17v7.59h-1.76V11a4.35,4.35,0,0,0-1-3.11,3.84,3.84,0,0,0-2.91-1.07,4.47,4.47,0,0,0-3.35,1.26,4.74,4.74,0,0,0-1.23,3.47v6.87h-1.77V5.37h1.7V7.79a4.86,4.86,0,0,1,2-1.86,6.37,6.37,0,0,1,3-.66A5.37,5.37,0,0,1,118.76,6.7Z"/><path class="cls-1" d="M137.18,5.37V16.86a6.68,6.68,0,0,1-1.63,4.94,6.76,6.76,0,0,1-4.92,1.61,10.87,10.87,0,0,1-3.44-.54,7.11,7.11,0,0,1-2.65-1.48l.9-1.34a6.8,6.8,0,0,0,2.3,1.32,8.68,8.68,0,0,0,2.84.47,5,5,0,0,0,3.66-1.16,4.86,4.86,0,0,0,1.17-3.59V15.42a5.3,5.3,0,0,1-2.15,1.89,6.68,6.68,0,0,1-2.95.65,6.91,6.91,0,0,1-3.34-.81,6,6,0,0,1-2.37-2.26,6.39,6.39,0,0,1-.86-3.3,6.3,6.3,0,0,1,.86-3.28A6,6,0,0,1,127,6.07a7.07,7.07,0,0,1,3.36-.8,6.6,6.6,0,0,1,3,.68,5.39,5.39,0,0,1,2.17,1.93V5.37Zm-4.13,10.41a4.42,4.42,0,0,0,1.78-1.7,4.9,4.9,0,0,0,.63-2.49,4.8,4.8,0,0,0-.63-2.47,4.52,4.52,0,0,0-1.77-1.7,5.42,5.42,0,0,0-2.57-.61,5.33,5.33,0,0,0-2.55.6,4.31,4.31,0,0,0-1.77,1.69,4.9,4.9,0,0,0-.63,2.49,4.9,4.9,0,0,0,.63,2.49,4.33,4.33,0,0,0,1.77,1.7,5.23,5.23,0,0,0,2.55.61A5.35,5.35,0,0,0,133.05,15.78Z"/><text class="cls-2" transform="translate(86.4 33.82)"><tspan class="cls-3">f</tspan><tspan x="4.04" y="0">or </tspan><tspan class="cls-4" x="19.04" y="0">k</tspan><tspan x="26.1" y="0">ids</tspan></text></g></g></svg>